PathFileType	4	(X/Y/Z)	Run_300 01
DataRate	CameraRate	NumFrames	NumMarkers	Units	OrigDataRate	OrigDataStartFrame	OrigNumFrames
120	120	7	42	mm	120	94	128
Frame#	Time	LASI			LPSI			RPSI			RTH1			RTH2			RTH3			LTH1			LTH2			LTH3			RTB1			RTB2			RTB3			LTB1			LTB2			RCAL			RTOE			RMT5			LCAL			LMT5			LACR			RACR			CLAV			C7			RUA1			RUA2			RUA3			RLEL			RMEL			LUA1			LUA2			LUA3			LLEL			LMEL			RFAsuperior			RFAradius			RFAulna			LFAsuperior			LFAradius			LFAulna			LTB3			LTOE			RASI			
		X1	Y1	Z1	X2	Y2	Z2	X3	Y3	Z3	X4	Y4	Z4	X5	Y5	Z5	X6	Y6	Z6	X7	Y7	Z7	X8	Y8	Z8	X9	Y9	Z9	X10	Y10	Z10	X11	Y11	Z11	X12	Y12	Z12	X13	Y13	Z13	X14	Y14	Z14	X15	Y15	Z15	X16	Y16	Z16	X17	Y17	Z17	X18	Y18	Z18	X19	Y19	Z19	X20	Y20	Z20	X21	Y21	Z21	X22	Y22	Z22	X23	Y23	Z23	X24	Y24	Z24	X25	Y25	Z25	X26	Y26	Z26	X27	Y27	Z27	X28	Y28	Z28	X29	Y29	Z29	X30	Y30	Z30	X31	Y31	Z31	X32	Y32	Z32	X33	Y33	Z33	X34	Y34	Z34	X35	Y35	Z35	X36	Y36	Z36	X37	Y37	Z37	X38	Y38	Z38	X39	Y39	Z39	X40	Y40	Z40	X41	Y41	Z41	X42	Y42	Z42	

91	0.916667	752.698415	977.631217	-492.367647	575.730126	995.116928	-426.742937	564.463829	999.29858	-341.092804	731.306868	813.733383	-206.167353	830.489115	722.104933	-239.255383	793.3272449999999	580.221373	-242.461993	722.178298	820.082681	-533.4890799999999	778.775388	710.467536	-521.4312629999999	716.397776	572.91189	-525.471685	855.6014740000001	380.173608	-317.201088	814.118977	321.758952	-258.915885	798.892254	209.874927	-331.105101	611.9241950000001	407.145825	-447.617023	499.883135	437.257244	-497.299659	654.279046	99.493571	-326.184372	872.808503	70.46513299999999	-339.771584	843.383857	65.13572000000001	-244.840466	307.988374	520.597524	-425.822865	254.245789	329.827808	-494.564218	764.073679	1421.644965	-533.653185	704.822238	1413.03265	-161.290603	825.4805270000001	1375.352419	-307.532717	707.904947	1477.437871	-352.905853	656.631127	1321.358788	-92.218092	664.0398740000001	1255.664868	-74.933318	558.4700769999999	1259.237697	-60.553589	564.296613	1189.677357	-0.333543	532.677845	1148.130241	-74.637624	723.174305	1369.816842	-597.382086	642.153008	1335.270565	-600.125839	690.576589	1296.016936	-651.087371	638.6494290000001	1213.458533	-709.388734	567.379065	1188.002064	-656.369639	646.213734	1170.779501	3.656407	803.741463	1135.083119	-41.050832	774.1849089999999	1074.294751	-24.588692	700.827331	1189.657461	-677.876964	793.204509	1147.232589	-533.618909	787.005191	1089.622066	-567.427373	422.073446	416.414366	-426.030765	290.74583	304.450001	-411.892877	728.958933	990.518841	-248.758547	
92	0.925	751.606012	970.3357099999999	-491.883671	573.513143	990.33597	-428.735904	562.074156	995.86404	-343.744544	726.829893	810.044966	-205.911831	826.487709	718.623247	-239.293978	788.155253	576.3050019999999	-242.593434	726.7756460000001	816.504312	-532.555333	785.904221	709.106677	-521.403508	729.087799	569.326835	-524.908272	843.951125	375.822295	-318.365437	800.693096	319.416693	-259.408767	780.45279	208.137591	-331.615703	630.494326	407.032226	-446.216727	518.430262	436.970462	-497.49566	630.430841	100.077149	-326.571649	848.551975	68.59768699999999	-339.027388	818.715519	64.601207	-245.185604	326.176837	524.0757599999999	-427.072178	275.074799	332.731478	-496.021938	760.081558	1416.740633	-533.7499790000001	706.596239	1406.819577	-158.669856	826.515008	1368.43705	-308.485853	708.055133	1472.992848	-351.039858	661.087137	1312.489897	-90.774056	670.201829	1246.525236	-74.540038	565.122873	1248.393979	-57.075201	574.45303	1179.564123	2.538546	541.651765	1136.485423	-70.14406700000001	717.308974	1364.757135	-596.316559	636.125976	1329.311293	-595.379156	683.262367	1292.27166	-649.007886	630.305642	1210.02479	-706.479689	560.802819	1184.179116	-652.378465	656.964005	1162.652371	3.970247	813.665094	1129.034537	-41.615374	785.034285	1067.813098	-24.039734	692.827911	1183.842175	-676.378763	788.131248	1137.200701	-535.787139	780.3235560000001	1080.172391	-570.913302	440.574275	418.792099	-425.939246	309.918094	307.950919	-412.118254	726.579442	984.975145	-246.073762	
93	0.933333	750.414356	964.160808	-491.551806	572.049229	988.3057690000001	-430.90901	560.342157	994.544441	-346.107178	722.509159	806.817731	-205.785609	820.52498	713.533806	-238.981886	779.792493	571.618502	-242.741859	730.8321529999999	814.840115	-531.774601	792.959379	709.44768	-521.057465	741.881125	567.9269860000001	-524.246831	830.557141	370.263491	-318.466515	784.855292	315.35283	-259.661857	760.505862	205.104165	-332.042603	650.172428	407.885464	-444.380676	537.946221	436.656917	-497.733683	606.157831	100.515656	-326.982571	823.793396	66.163275	-337.48069	793.776164	63.976983	-245.317047	343.852763	525.479248	-428.933679	297.678141	332.62899	-496.934409	755.664542	1413.2029	-533.884551	708.1348	1401.684922	-156.693297	826.894017	1363.379649	-309.502164	708.318412	1469.868415	-348.952021	665.217892	1305.619266	-89.809676	676.352546	1239.436161	-74.592867	571.675972	1238.9135	-54.929579	585.287806	1170.913257	4.484222	550.881699	1126.070799	-66.34045399999999	711.363339	1361.14937	-595.206657	630.241218	1324.398156	-590.3630889999999	675.7176009999999	1290.065884	-646.7731209999999	622.060094	1207.694558	-703.275486	554.207438	1181.18073	-648.267465	668.263076	1156.222402	2.95669	824.087678	1124.255249	-43.647134	796.123744	1062.79186	-25.153955	684.915034	1179.754114	-674.286486	782.964416	1128.293839	-537.854791	773.288034	1071.959039	-574.111517	459.973776	420.246699	-425.853118	330.884258	309.334212	-411.655662	723.867418	981.056414	-242.660592	
94	0.941667	749.371378	959.662055	-491.230353	571.096513	987.965062	-432.654055	558.758357	994.300972	-347.610139	717.873609	803.943336	-205.594334	812.773726	707.350611	-237.98033	768.737714	566.701825	-242.838707	733.879562	814.385929	-531.174969	800.163759	711.213971	-520.34881	755.069697	568.389855	-523.687078	815.345943	363.702493	-317.956718	766.773062	309.960157	-259.841999	738.867621	201.187325	-332.479432	670.627405	409.68398	-442.322327	558.2423199999999	436.448198	-498.019732	581.279589	100.767318	-327.216402	798.408182	64.129313	-335.701907	768.483421	63.565846	-245.218978	360.897497	524.741304	-431.259913	321.511076	329.742304	-497.208998	750.993215	1411.109999	-533.844663	709.617161	1397.816081	-155.497239	826.824909	1360.173008	-310.556857	708.398056	1467.72575	-346.933585	668.969754	1300.687859	-89.40555500000001	682.297939	1234.655854	-74.857114	577.911949	1230.96461	-54.335641	596.068391	1163.740477	5.582033	560.289579	1117.212449	-63.517934	705.324162	1359.137749	-593.990215	624.574596	1320.905705	-585.4152800000001	668.044858	1289.235301	-644.45332	613.827168	1206.661835	-699.988799	547.456831	1179.197004	-644.132437	679.418998	1151.074044	1.230164	834.694794	1121.236445	-47.237378	807.363595	1059.518766	-28.280072	677.0130360000001	1177.63174	-671.939072	777.711409	1121.039888	-539.786421	766.046125	1065.490934	-577.014988	479.976363	420.745006	-425.848873	353.257535	308.556721	-410.790245	720.9639069999999	978.37208	-239.38981	
95	0.95	748.601092	957.1701399999999	-490.771002	570.278944	988.194631	-433.477803	557.225507	994.3302	-348.054882	712.687785	801.572818	-205.296634	803.975399	701.29824	-236.369464	755.973136	562.318161	-242.69172	735.749146	814.477893	-530.837265	807.572663	714.264401	-519.44182	768.6864890000001	570.378964	-523.3229219999999	798.461037	357.104163	-317.097445	747.124316	304.455385	-259.812705	716.0803529999999	197.347147	-332.671712	691.493909	412.35964	-440.269963	579.029509	436.362929	-498.316878	556.026885	100.98131	-327.216836	772.721299	63.010204	-334.353176	742.982516	63.366269	-244.964681	377.304047	521.812647	-433.84581	346.090765	324.379377	-496.825306	746.246268	1410.419491	-533.537063	711.313436	1395.30898	-154.958958	826.599167	1358.517321	-311.721994	708.068521	1466.350599	-345.292723	672.504374	1297.356954	-89.496971	687.954437	1231.924241	-75.18747500000001	583.804074	1224.516484	-55.09126	606.185626	1157.796042	5.966714	569.848748	1110.091573	-61.936124	699.1327219999999	1358.706179	-592.6657269999999	619.031376	1319.106575	-580.894777	660.307756	1289.56639	-642.199401	605.424907	1206.952359	-696.852034	540.466545	1178.434903	-640.01069	689.913525	1146.6958	-0.66599	845.052183	1120.291506	-52.316916	818.639907	1058.126714	-33.505916	668.959258	1177.200799	-669.905356	772.359348	1116.031918	-541.624291	758.777678	1061.234304	-579.591421	500.293017	420.275734	-425.915149	376.784075	305.712365	-409.683053	718.274005	976.547268	-237.077451	
96	0.958333	748.072252	956.645729	-490.192219	569.398011	988.482419	-433.286788	556.102926	994.486259	-347.658549	707.101882	799.981597	-204.95413	794.903369	696.395728	-234.573287	742.4005	558.993218	-242.132358	736.646507	814.863788	-530.829584	815.038394	718.6528970000001	-518.62789	782.475806	573.805838	-523.145792	780.220285	351.58788	-316.009702	726.738278	300.081497	-259.38257	692.911174	194.457584	-332.422676	712.397952	415.813292	-438.440823	599.95154	436.342587	-498.567516	530.770724	101.342316	-327.106109	747.1645590000001	62.691494	-333.712568	717.493316	63.220243	-244.640862	393.110997	516.688437	-436.455776	371.134803	316.875527	-495.835384	741.544186	1411.023628	-533.044677	713.376471	1394.173133	-154.819139	826.439436	1358.107592	-313.10003	707.346164	1465.780751	-344.196313	676.095151	1295.292541	-89.908163	693.38404	1230.696799	-75.581294	589.509592	1219.476942	-56.615551	615.45908	1152.848539	5.742382	579.490615	1104.768378	-61.697624	692.804062	1359.7347	-591.30926	613.462055	1319.15005	-577.049526	652.560441	1290.951502	-640.174557	596.707269	1208.462126	-694.017217	533.254149	1179.120255	-635.8880830000001	699.626563	1142.961636	-2.590018	854.731027	1121.477971	-58.714093	829.75749	1058.618397	-40.598874	660.6099400000001	1177.99738	-668.616282	766.913034	1113.755605	-543.4639100000001	751.627687	1059.502621	-581.766898	520.691509	418.8413	-425.962533	401.335388	301.026068	-408.31061	716.257777	975.470989	-235.978224	
97	0.9666670000000001	747.6850930000001	957.69871	-489.701181	568.551243	989.036894	-432.398716	555.767032	995.1681139999999	-346.84755	701.450082	799.358235	-204.637043	785.956153	692.948988	-233.099172	728.510735	556.87306	-241.140648	737.073847	815.753054	-531.122403	822.2772629999999	724.485805	-518.137074	796.045315	578.817002	-523.084881	760.951465	347.779376	-314.794939	706.10397	297.453121	-258.519846	669.841238	192.927811	-331.783007	732.971336	419.924352	-437.023863	620.6388470000001	436.279923	-498.710735	505.738183	101.923748	-327.072135	721.939623	62.714969	-333.512195	692.153133	63.022709	-244.300848	408.36625	509.402986	-438.85954	396.61954	307.559497	-494.337394	736.9421	1412.810682	-532.563277	715.760215	1394.366369	-154.851908	826.433938	1358.834741	-314.755067	706.4631900000001	1466.214818	-343.600816	679.989453	1294.334987	-90.474081	698.764736	1230.492474	-76.16014199999999	595.282934	1215.825043	-58.19043	624.160502	1148.92037	4.944517	589.067592	1101.221881	-62.660248	686.480654	1362.068834	-590.040994	607.813997	1321.042776	-573.95349	644.902448	1293.409059	-638.477312	587.701275	1211.083974	-691.512129	525.9573789999999	1181.438641	-631.766275	708.78169	1140.254227	-4.834444	863.455651	1124.641036	-66.23442799999999	840.4672	1060.904534	-49.11327	651.980914	1179.803684	-668.105068	761.409753	1114.414826	-545.368244	744.677857	1060.372563	-583.477218	541.037185	416.447241	-425.884579	426.820571	294.78895	-406.554351	715.1655479999999	975.2565540000001	-235.774294	
